<?xml version="1.0" encoding="utf-8"?>
<!-- Generator: Adobe Illustrator 21.0.0, SVG Export Plug-In . SVG Version: 6.00 Build 0)  -->
<svg version="1.1" id="Layer_1" xmlns="http://www.w3.org/2000/svg" xmlns:xlink="http://www.w3.org/1999/xlink" x="0px" y="0px"
	 viewBox="0 0 1728 576" style="enable-background:new 0 0 1728 576;" xml:space="preserve">
<g>
	<path d="M413.3,425.5L413.3,425.5l15,16.1l25.3-23.5l-1.9-2.1V208.2l3.8,4.1v213.1l15,16.1l25.3-23.5l-1.9-2.1V208.2l3.8,4.1v213.1
		l15,16.1l25.3-23.5l-1.9-2.1V202.9l-27.9-30.1l-25.6,17.9L466,172.8l-17.7,12.4l-11.5-12.4l-25.3,23.5l1.9,2.1V425.5"/>
	<path d="M541.7,425.5L541.7,425.5l15,16.1l25.3-23.5l-1.9-2.1V188.9l-15-16.1l-25.3,23.5l1.9,2.1V425.5"/>
	<path d="M561.5,143.2l25.3-23.5L566,96l-25.3,23.5"/>
	<path d="M1163.7,143.2l25.3-23.5L1168.2,96l-25.3,23.5"/>
	<path d="M585.7,415L585.7,415l60.9,26.6l13.8-31.7l-36.3-15.8V233.5l3.5,9.3l32.4-12.1l-21.6-57.9l-52.7,36.9V415"/>
	<path d="M700,172.8l-17.7,12.4l-11.5-12.4l-25.3,23.5l1.9,2.1v227.1l15,16.1l25.3-23.5l-1.9-2.1V233.5l3.5,9.3l32.4-12.1L700,172.8
		L700,172.8"/>
	<path d="M764.1,172.8l-52.7,36.9v201.8l27.9,30.1l52.7-36.9V202.9L764.1,172.8z M753.6,406.2l-3.8-4.1V208.2l3.8,4.1V406.2z"/>
	<path d="M878.5,202.9l-28-30.1l-17.7,12.4l-11.5-12.4l-25.3,23.5l1.9,2.1v289.3l38.4-26.9v-7.9l-10.4-11.3l52.7-36.9V202.9z
		 M840.1,406.2l-3.8-4.1V208.2l3.8,4.1V406.2z"/>
	<path d="M883.9,425.5L883.9,425.5l15,16.1l25.3-23.5l-1.9-2.1V208.2l3.8,4.1v213.1l15,16.1l25.3-23.5l-1.9-2.1V202.9l-28-30.1
		l-14.3,10V96l-38.4,26.9V425.5"/>
	<path d="M1022.6,173.8l-52.7,36.9v201.8l28,30.1l52.7-36.9V203.9L1022.6,173.8z M1012.2,407.2l-3.8-4.1V209.2l3.8,4.1V407.2z"/>
	<path d="M1055.9,426.5L1055.9,426.5l15,16.1l25.3-23.5l-1.9-2.1V209.2l3.8,4.1v213.1l15,16.1l25.3-23.5l-1.9-2.1V203.9l-27.9-30.1
		l-17.8,12.4l-11.5-12.4l-25.3,23.5l1.9,2.1V426.5"/>
	<path d="M1141.9,426.5L1141.9,426.5l15,16.1l25.3-23.5l-1.9-2.1V189.9l-15-16.1l-25.3,23.5l1.9,2.1V426.5"/>
	<path d="M1185.8,416L1185.8,416l60.9,26.6l13.8-31.7l-36.3-15.8V234.5l3.5,9.3l32.4-12.1l-21.6-57.9l-52.7,36.9V416"/>
</g>
</svg>
