<?xml version="1.0" encoding="utf-8"?>
<!-- Generator: Adobe Illustrator 21.0.0, SVG Export Plug-In . SVG Version: 6.00 Build 0)  -->
<svg version="1.1" id="Layer_1" xmlns="http://www.w3.org/2000/svg" xmlns:xlink="http://www.w3.org/1999/xlink" x="0px" y="0px"
	 viewBox="0 0 1728 576" style="enable-background:new 0 0 1728 576;" xml:space="preserve">
<g>
	<path d="M408.8,403.7L408.8,403.7l33,17.1l13.9-26.7l-13.4-6.9V213.2l26.8,13.9v176.6l33,17.1l13.9-26.7l-13.4-6.9V213.2l26.8,13.9
		v176.6l33,17.1l13.9-26.7l-13.4-6.9V210.5l-46.3-24l-25.6,18l-34.6-18l-20,14l-27-14l-13.9,26.7l13.4,6.9V403.7"/>
	<path d="M588.3,403.7L588.3,403.7l33,17.1l13.9-26.7l-13.4-6.9V203.6l-33-17.1l-13.9,26.7l13.4,6.9V403.7"/>
	<path d="M615,163.7l13.9-26.7l-33.5-17.4l-13.9,26.7L615,163.7"/>
	<path d="M646.2,404.1L646.2,404.1l68.7,16.8l7.1-29.3l-42.4-10.3V215.6l24.1,25.4l21.8-20.7l-32-33.7l-47.4,33.2V404.1"/>
	<path d="M792.1,186.5l-20,14l-27-14l-13.9,26.7l13.4,6.9v183.6l33,17.1l13.9-26.7l-13.4-6.9V215.6l24.1,25.4l21.8-20.7L792.1,186.5
		L792.1,186.5"/>
	<path d="M877.3,186.5l-47.4,33.2v177.1l46.3,24l47.4-33.2V210.5L877.3,186.5z M890.1,394.1l-26.8-13.9v-167l26.8,13.9V394.1z"/>
	<path d="M991.1,186.5l-20,14l-27-14l-13.9,26.7l13.4,6.9V461l33.5-23.4v-23.4l12.9,6.7l47.4-33.2V210.5L991.1,186.5z M1004,394.1
		l-26.8-13.9v-167l26.8,13.9V394.1z"/>
	<path d="M1053,403.7L1053,403.7l33,17.1l13.9-26.7l-13.4-6.9V213.2l26.8,13.9v176.6l33,17.1l13.9-26.7l-13.4-6.9V210.5l-46.3-24
		l-13.9,9.8v-76.7L1053,143V403.7"/>
	<path d="M1214.2,186.5l-47.4,33.2v177.1l46.3,24l47.4-33.2V210.5L1214.2,186.5z M1227.1,394.1l-26.8-13.9v-167l26.8,13.9V394.1z"/>
	<path d="M1280.6,403.7L1280.6,403.7l33,17.1l13.9-26.7l-13.4-6.9V213.2l26.8,13.9v176.6l33,17.1l13.9-26.7l-13.4-6.9V210.5
		l-46.3-24l-20,14l-27-14l-13.9,26.7l13.4,6.9V403.7"/>
	<path d="M1401.2,403.7L1401.2,403.7l33,17.1l13.9-26.7l-13.4-6.9V203.6l-33-17.1l-13.9,26.7l13.4,6.9V403.7"/>
	<path d="M1428,163.7l13.9-26.7l-33.5-17.4l-13.9,26.7L1428,163.7"/>
	<path d="M1459.9,404.1L1459.9,404.1l68.7,16.8l7.1-29.3l-42.4-10.3V215.6l24.1,25.4l21.9-20.7l-32-33.7l-47.4,33.2V404.1"/>
</g>
</svg>
