<?xml version="1.0" encoding="utf-8"?>
<!-- Generator: Adobe Illustrator 21.0.0, SVG Export Plug-In . SVG Version: 6.00 Build 0)  -->
<svg version="1.1" id="Layer_1" xmlns="http://www.w3.org/2000/svg" xmlns:xlink="http://www.w3.org/1999/xlink" x="0px" y="0px"
	 viewBox="0 0 1728 576" style="enable-background:new 0 0 1728 576;" xml:space="preserve">
<path d="M615.8,172.8l-4.2,4.2l-44.2-4.2l-0.6,6.1l38.4,3.6v305.1l7.7-7.7v-45.4l74,7l10.5-10.5V180.5L615.8,172.8z M689.8,435.7
	l-76.8-7.2V178.7l76.8,7.2V435.7z"/>
<path d="M721.3,437.3L721.3,437.3l45.5,4.3l0.6-6.1l-38.4-3.6V178.7l76.8,7.2v251.4l45.5,4.3l0.6-6.1l-38.4-3.6V180.5l-81.7-7.7
	l-2.8,2.8V96l-7.7,7.7V437.3"/>
<path d="M873.1,172.8l-10.5,10.5v250.6l81.7,7.7l10.5-10.5V180.5L873.1,172.8z M947,435.7l-76.8-7.2V178.7L947,186V435.7z"/>
<path d="M1003.8,437.3L1003.8,437.3l45.5,4.3l0.6-6.1l-38.4-3.6V178.7l76.8,7.2v251.4l45.5,4.3l0.6-6.1l-38.4-3.6V180.5l-81.7-7.7
	l-4.2,4.2l-44.2-4.2l-0.6,6.1l38.4,3.6V437.3"/>
<path d="M1151.3,437.3L1151.3,437.3l45.5,4.3l0.6-6.1l-38.4-3.6V177.1l-45.5-4.3l-0.6,6.1l38.4,3.6V437.3"/>
<path d="M1146.7,102.8l0.6-6.1l-7.7-0.7l-0.6,6.1L1146.7,102.8"/>
<path d="M1211.4,438L1211.4,438l77.2,3.6l0.3-6.1l-69.8-3.3V178.5l69.1,12.8l1.1-6l-67.4-12.4l-10.5,10.5V438"/>
</svg>
