<?xml version="1.0" encoding="utf-8"?>
<!-- Generator: Adobe Illustrator 21.0.0, SVG Export Plug-In . SVG Version: 6.00 Build 0)  -->
<svg version="1.1" id="Layer_1" xmlns="http://www.w3.org/2000/svg" xmlns:xlink="http://www.w3.org/1999/xlink" x="0px" y="0px"
	 viewBox="0 0 1728 576" style="enable-background:new 0 0 1728 576;" xml:space="preserve">
	<rect width="100%" height="100%" fill="white" />
<g>
	<path d="M409.4,312l46.8-125.5l-36.7-13.7l-29.4,17v245.9l62.8,6l1.5-15.3l-45.1-4.3V312z M409.4,185.4l34.3,12.8L409.4,290V185.4z
		"/>
	<path d="M506.2,180.4L506.2,180.4l-39.3-7.6l-2.9,15.1l23,4.4V431l55.1,10.6l12.4-7.1l37.1,7.1l2.9-15.1l-23-4.4V180.4l-39.3-7.6
		l-2.9,15.1l23,4.4v235.6l-46.1-8.9V180.4"/>
	<path d="M635.6,172.8l-12.4,7.1l-37.1-7.1l-2.9,15.1l23,4.4v295.4l19.2-11.1v-41.9l35.9,6.9l29.4-17V183.4L635.6,172.8z
		 M671.5,427.9l-46.1-8.9V186.5l46.1,8.9V427.9z"/>
	<path d="M713.4,434L713.4,434l39.3,7.6l2.9-15.1l-23-4.4V186.5l46.1,8.9V434l39.3,7.6l2.9-15.1l-23-4.4V183.4l-55.1-10.6l-10.2,5.9
		V96l-19.2,11.1V434"/>
	<path d="M861,172.8l-29.4,17V431l55.1,10.6l29.4-17V183.4L861,172.8z M896.9,427.9l-46.1-8.9V186.5l46.1,8.9V427.9z"/>
	<path d="M949.8,434L949.8,434l39.3,7.6l2.9-15.1l-23-4.4V186.5l46.1,8.9V434l39.3,7.6l2.9-15.1l-23-4.4V183.4l-55.1-10.6l-12.4,7.1
		l-37.1-7.1l-2.9,15.1l23,4.4V434"/>
	<g>
		<polygon points="1088,422.1 1088,180.4 1048.7,172.8 1045.8,187.9 1068.8,192.3 1068.8,434 1108.2,441.6 1111.1,426.5 		"/>
		<rect x="1060.7" y="95.6" transform="matrix(0.189 -0.982 0.982 0.189 762.9836 1134.5966)" width="15.4" height="19.6"/>
	</g>
	<path d="M1122.8,435.6L1122.8,435.6l62.8,6l1.5-15.3L1142,422V185.4l41.5,15.5l5.4-14.4l-36.7-13.7l-29.4,17V435.6"/>
</g>
</svg>
