<?xml version="1.0" encoding="utf-8"?>
<!-- Generator: Adobe Illustrator 25.4.1, SVG Export Plug-In . SVG Version: 6.00 Build 0)  -->
<svg version="1.1" id="Layer_1" xmlns="http://www.w3.org/2000/svg" xmlns:xlink="http://www.w3.org/1999/xlink" x="0px" y="0px"
	 viewBox="0 0 1728 576" style="enable-background:new 0 0 1728 576;" xml:space="preserve">
<rect width="100%" height="100%" fill="white" />
<g>
	<path d="M235.5,430.8L235.5,430.8l42.4,10.2l5.4-22.3l-19.1-4.6V192.8l38.3,9.2v228.8l42.4,10.2l5.4-22.3l-19.1-4.6V192.8l38.3,9.2
		v228.8l42.4,10.2l5.4-22.3l-19.1-4.6V185.3l-50.3-12.1L325,183.9l-44.1-10.6l-20.2,9.4l-39-9.4l-5.4,22.3l19.1,4.6v230.6"/>
	<path d="M471.4,173.2L426,194.4V429l50.3,12.1l45.4-21.2V185.3L471.4,173.2z M493,421.5l-38.3-9.2V192.8L493,202V421.5z"/>
	<path d="M549.6,430.8L549.6,430.8L592,441l5.4-22.3l-19.1-4.6V192.8l38.3,9.2v228.8L659,441l5.4-22.3l-19.1-4.6V185.3L595,173.2
		l-20.2,9.4l-39-9.4l-5.4,22.3l19.1,4.6v230.7"/>
	<path d="M718.5,173.2l-45.4,21.2V429l50.3,12.1l45.4-21.2V185.3L718.5,173.2z M740.1,421.5l-38.3-9.2V192.8l38.3,9.2V421.5z"/>
	<path d="M842.1,173.2l-20.2,9.4l-39-9.4l-5.4,22.3l19.1,4.6V487l28.7-13.4v-37.7l21.6,5.2l45.4-21.2V185.3L842.1,173.2z
		 M863.7,421.5l-38.3-9.2V192.8l38.3,9.2V421.5z"/>
	<path d="M913.6,430.8L913.6,430.8L956,441l5.4-22.3l-19.1-4.6V192.8l38.3,9.2v228.8l42.5,10.2l5.4-22.3l-19.1-4.6V185.3L959,173.2
		l-16.7,7.8V96.7l-28.7,13.4V430.8"/>
	<path d="M1082.8,173.2l-45.4,21.2V429l50.3,12.1l45.4-21.2V185.3L1082.8,173.2z M1104.3,421.5l-38.3-9.2V192.8l38.3,9.2V421.5z"/>
	<path d="M1161.1,430.8L1161.1,430.8l42.4,10.2l5.4-22.3l-19.1-4.6V192.8l38.3,9.2v228.8l42.4,10.2l5.4-22.3l-19.1-4.6V185.3
		l-50.3-12.1l-20.2,9.4l-39-9.4l-5.4,22.3l19.1,4.6L1161.1,430.8"/>
	<path d="M1287.6,430.8L1287.6,430.8L1330,441l5.4-22.3l-19.1-4.6V183.4l-42.4-10.2l-5.4,22.3l19.1,4.6V430.8 M1306.7,125.9
		l5.4-22.3l-28.7-6.9L1278,119L1306.7,125.9"/>
	<path d="M1348.5,433.1L1348.5,433.1l67.2,8l2.7-22.8l-41.2-4.9V190.7l34.4,16.1l9.7-20.8l-27.5-12.9l-45.4,21.2v238.8"/>
</g>
</svg>
